<?xml version="1.0" ?>
<svg id="Layer_1" style="enable-background:new 0 0 64 64;" version="1.1" viewBox="0 0 64 64" xml:space="preserve"
	 xmlns="http://www.w3.org/2000/svg"><style type="text/css">
	.st0{fill:#62BEE7;}
	.st1{fill:#474E5E;}
	.st2{fill:#F3EEE4;}
	.st3{fill:#FFFFFF;}
	.st4{fill:#E8DCCA;}
	.st5{opacity:0.1;fill:#231F20;}
	.st6{fill:#506268;}
	.st7{fill:#EB5151;}
	.st8{fill:#C64444;}
	.st9{fill:#9CCB5B;}
	.st10{fill:#404A4C;}
	.st11{fill:#676767;}
	.st12{fill:#E0E1E5;}
	.st13{fill:#9D9EA0;}
	.st14{fill:#B3B4B7;}
	.st15{opacity:0.1;}
	.st16{fill:#231F20;}
	.st17{fill:#FACC20;}
	.st18{fill:#FDEF34;}
	.st19{fill:#F7A90B;}
	.st20{fill:#20B8EA;}
	.st21{fill:#00A8EA;}
	.st22{fill:#33D3F4;}
	.st23{opacity:0.25;fill:#FFFFFF;}
	.st24{fill:#CACBCE;}
	.st25{fill:#2E3545;}
	.st26{fill:#8DAF4A;}
	.st27{fill:#F9C2AF;}
	.st28{fill:#AFDDF4;}
	.st29{fill:#677177;}
	.st30{fill:#FFEDB3;}
	.st31{fill:#695652;}
	.st32{fill:#30A7BF;}
	.st33{fill:#4D5556;}
	.st34{opacity:0.35;}
	.st35{fill:#FFCB04;}
	.st36{fill:#99E9FA;}
	.st37{opacity:0.2;}
	.st38{opacity:3.000000e-02;}
	.st39{fill:#9ECA5B;}
	.st40{fill:#98BA56;}
	.st41{fill:#40EEFF;}
	.st42{fill:#FF6A52;}
	.st43{opacity:0.1;fill:#FFFFFF;}
	.st44{opacity:0.4;}
	.st45{fill:#57606D;}
	.st46{fill:#BACA5B;}
	.st47{opacity:0.25;}
	.st48{opacity:5.000000e-02;fill:#231F20;}
	.st49{opacity:0.2;fill:#FFFFFF;}
	.st50{opacity:0.3;}
	.st51{fill:#FFD82F;}
	.st52{fill:#F4C121;}
	.st53{fill:#EF9D0A;}
	.st54{fill:#F9E532;}
	.st55{fill:#F4C01E;}
	.st56{fill:#FFE14D;}
	.st57{fill:#B7C156;}
	.st58{fill:#DBA92C;}
	.st59{fill:#363D4D;}
	.st60{fill:#3F4656;}
	.st61{fill:#463E33;}
	.st62{fill:none;}
	.st63{opacity:4.000000e-02;}
	.st64{fill:#4DB6AC;}
	.st65{fill:#CADE49;}
	.st66{fill:#9FD343;}
	.st67{fill:#AAD643;}
	.st68{fill:#82C736;}
	.st69{opacity:0.3;fill:#FFFFFF;}
	.st70{fill:#FFD640;}
	.st71{opacity:0.5;}
	.st72{opacity:0.6;}
</style><g><circle class="st9" cx="32" cy="32" r="32"/><g><path class="st10" d="M49.9,10.3H14.1c-2.1,0-3.7,1.7-3.7,3.7v35.9c0,2.1,1.7,3.7,3.7,3.7h35.9c2.1,0,3.7-1.7,3.7-3.7V14.1    C53.7,12,52,10.3,49.9,10.3z"/><g><path class="st11" d="M46.3,48.5H17.7c-1.2,0-2.3-1-2.3-2.3V17.7c0-1.2,1-2.3,2.3-2.3h28.6c1.2,0,2.3,1,2.3,2.3v28.6     C48.5,47.5,47.5,48.5,46.3,48.5z M17.7,16.4c-0.7,0-1.4,0.6-1.4,1.4v28.6c0,0.7,0.6,1.4,1.4,1.4h28.6c0.7,0,1.4-0.6,1.4-1.4V17.7     c0-0.7-0.6-1.4-1.4-1.4H17.7z"/></g><path class="st12" d="M19.4,25.7h-9.1v-4.2h9.1c1.2,0,2.1,0.9,2.1,2.1v0C21.5,24.8,20.6,25.7,19.4,25.7z"/><path class="st12" d="M19.4,42.5h-9.1v-4.2h9.1c1.2,0,2.1,0.9,2.1,2.1v0C21.5,41.5,20.6,42.5,19.4,42.5z"/><circle class="st13" cx="36.2" cy="32" r="7.7"/><circle class="st10" cx="36.2" cy="32" r="3.5"/><path class="st12" d="M36.2,40.4c4.6,0,8.4-3.8,8.4-8.4s-3.8-8.4-8.4-8.4s-8.4,3.8-8.4,8.4S31.6,40.4,36.2,40.4z M30.8,27.6l2,2    c-0.4,0.5-0.6,1.1-0.7,1.7h-2.8C29.4,29.9,29.9,28.6,30.8,27.6z M43.1,31.3h-2.8c-0.1-0.6-0.4-1.2-0.7-1.7l2-2    C42.4,28.6,43,29.9,43.1,31.3z M41.6,36.4l-2-2c0.4-0.5,0.6-1.1,0.7-1.7h2.8C43,34.1,42.4,35.4,41.6,36.4z M36.2,29.2    c1.5,0,2.8,1.3,2.8,2.8c0,1.5-1.3,2.8-2.8,2.8s-2.8-1.3-2.8-2.8C33.4,30.5,34.6,29.2,36.2,29.2z M33.8,35.4    c0.5,0.4,1.1,0.6,1.7,0.7V39c-1.4-0.1-2.7-0.7-3.7-1.5L33.8,35.4z M36.9,36.2c0.6-0.1,1.2-0.4,1.7-0.7l2,2c-1,0.8-2.3,1.4-3.7,1.5    V36.2z M38.6,28.6c-0.5-0.4-1.1-0.6-1.7-0.7v-2.8c1.4,0.1,2.7,0.7,3.7,1.5L38.6,28.6z M35.5,27.9c-0.6,0.1-1.2,0.4-1.7,0.7l-2-2    c1-0.8,2.3-1.4,3.7-1.5V27.9z M32.1,32.7c0.1,0.6,0.4,1.2,0.7,1.7l-2,2c-0.8-1-1.4-2.3-1.5-3.7H32.1z"/><g><circle class="st14" cx="19.1" cy="23.6" r="1.1"/><path class="st13" d="M19.8,22.7l-1.5,1.5c0.1,0.1,0.1,0.2,0.2,0.2l1.5-1.5C19.9,22.9,19.8,22.8,19.8,22.7z"/></g><g><circle class="st14" cx="19.1" cy="40.4" r="1.1"/><path class="st13" d="M19.8,39.5l-1.5,1.5c0.1,0.1,0.1,0.2,0.2,0.2l1.5-1.5C19.9,39.6,19.8,39.6,19.8,39.5z"/></g><path class="st5" d="M42.4,26.4c1.3,1.5,2.2,3.4,2.2,5.6c0,4.6-3.8,8.4-8.4,8.4c-2.2,0-4.1-0.8-5.6-2.2c1.5,1.7,3.7,2.8,6.2,2.8    c4.6,0,8.4-3.8,8.4-8.4C45.2,30.2,44.1,27.9,42.4,26.4z"/><circle class="st3" cx="45.5" cy="17.8" r="3"/><circle class="st3" cx="28.5" cy="38.5" r="2"/><g class="st15"><polygon class="st3" points="31.3,10.3 10.3,31.3 10.3,26.9 26.9,10.3    "/><polygon class="st3" points="43.3,10.3 10.3,43.3 10.3,33.8 33.8,10.3    "/></g></g></g></svg>
